<?xml version="1.0" encoding="UTF-8"?>
<svg width="19px" height="22px" viewBox="0 0 19 22" version="1.1" xmlns="http://www.w3.org/2000/svg" xmlns:xlink="http://www.w3.org/1999/xlink">
    <g id="Page-1" stroke="none" stroke-width="1" fill="none" fill-rule="evenodd">
        <g id="Artboard" transform="translate(-65.000000, -157.000000)" fill-rule="nonzero" fill="#000000">
            <g id="bell" transform="translate(65.000000, 157.000000)">
                <path d="M9.48392546,21.0326256 C10.7134738,21.0326256 12.1447343,20.1356365 12.1447343,19.0203441 L6.82311662,19.0203441 C6.82311662,20.1356365 8.25437716,21.0326256 9.48392546,21.0326256 Z M17,14.4025475 L17,8.82632916 C17,5.73406263 14.3618949,3.09812963 11.1764801,2.43897577 L11.1764801,1.729324 C11.1764801,0.867447319 10.450108,0.208537184 9.5,0.208537184 C8.54989205,0.208537184 7.82351989,0.867447319 7.82351989,1.729324 L7.82351989,2.43897577 C4.63805114,3.09812963 1.99941406,5.73406263 1.99941406,8.82632916 L1.99941406,14.4025475 L0,16.4302633 L0,18.0179445 L19,18.0179445 L19,16.4302633 L17,14.4025475 Z"></path>
            </g>
        </g>
    </g>
</svg>