<?xml version="1.0" encoding="UTF-8"?>
<svg width="25px" height="27px" viewBox="0 0 25 27" version="1.1" xmlns="http://www.w3.org/2000/svg" xmlns:xlink="http://www.w3.org/1999/xlink">
    <g id="Page-1" stroke="none" stroke-width="1" fill="none" fill-rule="evenodd">
        <path d="M12.4788493,26.9878099 C14.096676,26.9878099 15.9799135,25.4914527 15.9799135,24.0239626 L8.97778503,24.0239626 C8.97778503,25.4914527 10.8610226,26.9878099 12.4788493,26.9878099 Z M22.0588778,18.9263294 L22.0588778,11.5892 C22.0588778,7.52042821 18.8972301,4.05209532 14.7058949,3.18478762 L14.7058949,2.25103529 C14.7058949,1.11698702 13.750142,0.25 12.5,0.25 C11.249858,0.25 10.2941051,1.11698702 10.2941051,2.25103529 L10.2941051,3.18478762 C6.10269886,4.05209532 2.94112216,7.52042821 2.94112216,11.5892 L2.94112216,18.9263294 L0,21.5943764 L0,22.9283999 L25,22.9283999 L25,21.5943764 L22.0588778,18.9263294 Z" id="bell" fill="#FFFFFF" fill-rule="nonzero"></path>
    </g>
</svg>