<?xml version="1.0" encoding="UTF-8"?>
<svg width="35px" height="25px" viewBox="0 0 35 25" version="1.1" xmlns="http://www.w3.org/2000/svg" xmlns:xlink="http://www.w3.org/1999/xlink">
    <g id="Page-1" stroke="none" stroke-width="1" fill="none" fill-rule="evenodd">
        <path d="M17.5,15.8774304 L10,9.01851223 L15.0197011,9.01851223 L15.0197011,0 L20.0049253,0 L20.0049253,9.01851223 L25,9.01851223 L17.5,15.8774304 Z M34.022764,15.0028409 L35,18 L35,22.9940809 C35,24.1134452 34.101229,25 32.9925388,25 L2.00746124,25 C0.900345519,25 0,24.1019194 0,22.9940809 L0,18 L0.989701705,15.0028409 L6.99915661,10.996804 L10,10.996804 L5.01201923,16 L10,16 L10,19 L25,19 L25,16 L29.9711538,16 L24.9947931,10.996804 L28.2314116,10.996804 L34.022764,15.0028409 Z" id="inbox" fill="#FFFFFF" fill-rule="nonzero"></path>
    </g>
</svg>