<?xml version="1.0" encoding="UTF-8"?>
<svg width="20px" height="20px" viewBox="0 0 20 20" version="1.1" xmlns="http://www.w3.org/2000/svg" xmlns:xlink="http://www.w3.org/1999/xlink">
    <g id="Page-1" stroke="none" stroke-width="1" fill="none" fill-rule="evenodd">
        <g id="Bookmarks" transform="translate(-64.000000, -746.000000)" fill="#000000">
            <path d="M70.9040804,766 C70.2819358,765.807607 69.6845927,765.558751 69.118038,765.259421 L68.9080174,761.091983 L64.7405792,760.881962 C64.4412486,760.315407 64.1923932,759.718064 64,759.09592 L66.7988492,756 L64,752.90408 C64.1923932,752.281936 64.4412486,751.684593 64.7405792,751.118038 L68.9080174,750.908017 L69.118038,746.740579 C69.6845927,746.441249 70.2819358,746.192393 70.9040804,746 L74,748.798849 L77.0959196,746 C77.7180642,746.192393 78.3154073,746.441249 78.881962,746.740579 L79.0919826,750.908017 L83.2594208,751.118038 C83.5587514,751.684593 83.8076068,752.281936 84,752.90408 L81.2011508,756 L84,759.09592 C83.8076068,759.718064 83.5587514,760.315407 83.2594208,760.881962 L79.0919826,761.091983 L78.881962,765.259421 C78.3154073,765.558751 77.7180642,765.807607 77.0959196,766 L74,763.201151 L70.9040804,766 Z M74,761 C76.7614237,761 79,758.761424 79,756 C79,753.238576 76.7614237,751 74,751 C71.2385763,751 69,753.238576 69,756 C69,758.761424 71.2385763,761 74,761 Z M74,758 C72.8954305,758 72,757.104569 72,756 C72,754.895431 72.8954305,754 74,754 C75.1045695,754 76,754.895431 76,756 C76,757.104569 75.1045695,758 74,758 Z" id="settings"></path>
        </g>
    </g>
</svg>