<?xml version="1.0" encoding="UTF-8"?>
<svg width="25px" height="17px" viewBox="0 0 25 17" version="1.1" xmlns="http://www.w3.org/2000/svg" xmlns:xlink="http://www.w3.org/1999/xlink">
    <g id="Page-1" stroke="none" stroke-width="1" fill="none" fill-rule="evenodd">
        <g id="Artboard" transform="translate(-149.000000, -209.000000)" fill="#000000">
            <g id="Group" transform="translate(149.000000, 209.000000)">
                <rect id="Rectangle-5" x="9" y="0" width="7" height="17" rx="1"></rect>
                <path d="M0,0.999960201 C0,0.447697432 0.437881351,0 1.00292933,0 L5.99707067,0 C6.55097324,0 7,0.454708934 7,0.999960201 L7,16.0000398 C7,16.5523026 6.56211865,17 5.99707067,17 L1.00292933,17 C0.449026756,17 0,16.5452911 0,16.0000398 L0,0.999960201 Z M1,2.0093689 L1,3.9906311 C1,4.55664682 1.44762906,5 1.99980749,5 L5.00019251,5 C5.55628335,5 6,4.54809015 6,3.9906311 L6,2.0093689 C6,1.44335318 5.55237094,1 5.00019251,1 L1.99980749,1 C1.44371665,1 1,1.45190985 1,2.0093689 Z M1,7.0093689 L1,8.9906311 C1,9.55664682 1.44762906,10 1.99980749,10 L5.00019251,10 C5.55628335,10 6,9.54809015 6,8.9906311 L6,7.0093689 C6,6.44335318 5.55237094,6 5.00019251,6 L1.99980749,6 C1.44371665,6 1,6.45190985 1,7.0093689 Z" id="Combined-Shape"></path>
                <path d="M18,0.999960201 C18,0.447697432 18.4378814,0 19.0029293,0 L23.9970707,0 C24.5509732,0 25,0.454708934 25,0.999960201 L25,16.0000398 C25,16.5523026 24.5621186,17 23.9970707,17 L19.0029293,17 C18.4490268,17 18,16.5452911 18,16.0000398 L18,0.999960201 Z M19,2.0093689 L19,3.9906311 C19,4.55664682 19.4476291,5 19.9998075,5 L23.0001925,5 C23.5562834,5 24,4.54809015 24,3.9906311 L24,2.0093689 C24,1.44335318 23.5523709,1 23.0001925,1 L19.9998075,1 C19.4437166,1 19,1.45190985 19,2.0093689 Z" id="Combined-Shape"></path>
            </g>
        </g>
    </g>
</svg>